<mxfile host="Electron" agent="Mozilla/5.0 (Macintosh; Intel Mac OS X 10_15_7) AppleWebKit/537.36 (KHTML, like Gecko) draw.io/24.7.17 Chrome/128.0.6613.36 Electron/32.0.1 Safari/537.36" version="24.7.17">
  <diagram name="Página-1" id="nS4G2A9KZ03K4tRT20x-">
    <mxGraphModel dx="1114" dy="777" grid="1" gridSize="10" guides="1" tooltips="1" connect="1" arrows="1" fold="1" page="1" pageScale="1" pageWidth="827" pageHeight="1169" math="0" shadow="0">
      <root>
        <mxCell id="0" />
        <mxCell id="1" parent="0" />
        <mxCell id="chC2J1T07oMIhuz7B7of-15" value="" style="rounded=0;whiteSpace=wrap;html=1;sketch=1;curveFitting=1;jiggle=2;" vertex="1" parent="1">
          <mxGeometry x="20" y="500" width="310" height="300" as="geometry" />
        </mxCell>
        <mxCell id="chC2J1T07oMIhuz7B7of-2" value="&lt;h3&gt;&lt;font face=&quot;Comic Sans MS&quot;&gt;SERVER&lt;/font&gt;&lt;/h3&gt;" style="rounded=0;whiteSpace=wrap;html=1;sketch=1;curveFitting=1;jiggle=2;" vertex="1" parent="1">
          <mxGeometry x="330" y="60" width="130" height="30" as="geometry" />
        </mxCell>
        <mxCell id="chC2J1T07oMIhuz7B7of-3" value="Atributos:&lt;br&gt;- int&#x9;&lt;span style=&quot;white-space: pre;&quot;&gt;&#x9;&lt;/span&gt;&lt;span style=&quot;white-space: pre;&quot;&gt;&#x9;&lt;/span&gt;_port&lt;br&gt;- string&#x9;&lt;span style=&quot;white-space: pre;&quot;&gt;&#x9;&lt;/span&gt;_password&lt;br&gt;- string&lt;span style=&quot;white-space: pre;&quot;&gt;&#x9;&lt;/span&gt;_name&lt;br&gt;- bool&lt;span style=&quot;white-space: pre;&quot;&gt;&#x9;&lt;/span&gt;_isRunning&lt;br&gt;- int&lt;span style=&quot;white-space: pre;&quot;&gt;&#x9;&lt;/span&gt;&lt;span style=&quot;white-space: pre;&quot;&gt;&#x9;&lt;/span&gt;_serverFd&lt;br&gt;- vector&lt;span style=&quot;white-space: pre;&quot;&gt;&#x9;&lt;/span&gt;_channels&lt;br&gt;- map&lt;span style=&quot;white-space: pre;&quot;&gt;&#x9;&lt;/span&gt;_users&lt;br&gt;- vector&lt;span style=&quot;white-space: pre;&quot;&gt;&#x9;&lt;/span&gt;_pollFds" style="rounded=0;align=left;whiteSpace=wrap;html=1;sketch=1;curveFitting=1;jiggle=2;" vertex="1" parent="1">
          <mxGeometry x="330" y="90" width="130" height="140" as="geometry" />
        </mxCell>
        <mxCell id="chC2J1T07oMIhuz7B7of-4" value="Métodos:&lt;div&gt;+ start();&lt;/div&gt;&lt;div&gt;+ stop();&lt;/div&gt;&lt;div style=&quot;&quot;&gt;+ prepareSocket();&lt;/div&gt;&lt;div&gt;+ acceptUser();&lt;/div&gt;&lt;div&gt;+ addUser();&lt;/div&gt;&lt;div&gt;+ removeUser();&lt;/div&gt;&lt;div&gt;&lt;br&gt;&lt;/div&gt;&lt;div&gt;+ createChannel();&lt;/div&gt;&lt;div&gt;+ addUserToChannel();&lt;/div&gt;&lt;div&gt;+ removeChannel();&lt;/div&gt;&lt;div&gt;&lt;br&gt;&lt;/div&gt;" style="rounded=0;whiteSpace=wrap;html=1;align=left;sketch=1;curveFitting=1;jiggle=2;" vertex="1" parent="1">
          <mxGeometry x="330" y="230" width="130" height="200" as="geometry" />
        </mxCell>
        <mxCell id="chC2J1T07oMIhuz7B7of-5" value="&lt;h3&gt;&lt;font face=&quot;Comic Sans MS&quot;&gt;USER&lt;/font&gt;&lt;/h3&gt;" style="rounded=0;whiteSpace=wrap;html=1;sketch=1;curveFitting=1;jiggle=2;fillColor=none;strokeColor=#6c8ebf;" vertex="1" parent="1">
          <mxGeometry x="40" y="120" width="140" height="30" as="geometry" />
        </mxCell>
        <mxCell id="chC2J1T07oMIhuz7B7of-6" value="Atributos:&lt;br&gt;- int&#x9;&lt;span style=&quot;white-space: pre;&quot;&gt;&#x9;&lt;/span&gt;&lt;span style=&quot;white-space: pre;&quot;&gt;&#x9;&lt;/span&gt;_fd&lt;br&gt;- bool&amp;nbsp;&lt;span style=&quot;white-space: pre;&quot;&gt;&#x9;&lt;/span&gt;_authenticated&lt;br&gt;- string&lt;span style=&quot;white-space: pre;&quot;&gt;&#x9;&lt;/span&gt;_ip&lt;br&gt;- string&lt;span style=&quot;white-space: pre;&quot;&gt;&#x9;&lt;/span&gt;_nick&lt;br&gt;- string&lt;span style=&quot;white-space: pre;&quot;&gt;&#x9;&lt;/span&gt;_userName&lt;br&gt;- string&lt;span style=&quot;white-space: pre;&quot;&gt;&#x9;&lt;/span&gt;_realName&lt;div&gt;&lt;br/&gt;&lt;/div&gt;" style="rounded=0;align=left;whiteSpace=wrap;html=1;sketch=1;curveFitting=1;jiggle=2;fillColor=none;strokeColor=#6c8ebf;" vertex="1" parent="1">
          <mxGeometry x="40" y="150" width="140" height="140" as="geometry" />
        </mxCell>
        <mxCell id="chC2J1T07oMIhuz7B7of-7" value="&lt;div&gt;Métodos:&lt;/div&gt;" style="rounded=0;whiteSpace=wrap;html=1;align=left;sketch=1;curveFitting=1;jiggle=2;fillColor=none;strokeColor=#6c8ebf;" vertex="1" parent="1">
          <mxGeometry x="40" y="290" width="140" height="170" as="geometry" />
        </mxCell>
        <mxCell id="chC2J1T07oMIhuz7B7of-8" value="&lt;h3&gt;&lt;font face=&quot;Comic Sans MS&quot;&gt;CHANNEL&lt;/font&gt;&lt;/h3&gt;" style="rounded=0;whiteSpace=wrap;html=1;sketch=1;curveFitting=1;jiggle=2;fillColor=none;strokeColor=#9673a6;" vertex="1" parent="1">
          <mxGeometry x="640" y="120" width="160" height="30" as="geometry" />
        </mxCell>
        <mxCell id="chC2J1T07oMIhuz7B7of-9" value="Atributos:&lt;br&gt;- bool&amp;nbsp;&lt;span style=&quot;white-space: pre;&quot;&gt;&#x9;&lt;/span&gt;_isPrivate&lt;div&gt;- bool&lt;span style=&quot;white-space: pre;&quot;&gt;&#x9;&lt;/span&gt;_joinFlag&lt;br&gt;- size_t&amp;nbsp;&lt;span style=&quot;white-space: pre;&quot;&gt;&#x9;&lt;/span&gt;_maxUsers&lt;br&gt;- string&lt;span style=&quot;white-space: pre;&quot;&gt;&#x9;&lt;/span&gt;_channelName&lt;br&gt;-string&lt;span style=&quot;white-space: pre;&quot;&gt;&#x9;&lt;/span&gt;_channelPass&lt;br&gt;- string&lt;span style=&quot;white-space: pre;&quot;&gt;&#x9;&lt;/span&gt;_topic&lt;br&gt;- vector&lt;span style=&quot;white-space: pre;&quot;&gt;&#x9;&lt;/span&gt;_channels&lt;br&gt;- map&lt;span style=&quot;white-space: pre;&quot;&gt;&#x9;&lt;/span&gt;*_users&lt;br&gt;- vector&lt;span style=&quot;white-space: pre;&quot;&gt;&#x9;&lt;/span&gt;*_channelUsers&lt;div&gt;-vector&lt;span style=&quot;white-space: pre;&quot;&gt;&#x9;&lt;/span&gt;*_channelOp&lt;/div&gt;&lt;/div&gt;" style="rounded=0;align=left;whiteSpace=wrap;html=1;sketch=1;curveFitting=1;jiggle=2;fillColor=none;strokeColor=#9673a6;" vertex="1" parent="1">
          <mxGeometry x="640" y="150" width="160" height="170" as="geometry" />
        </mxCell>
        <mxCell id="chC2J1T07oMIhuz7B7of-10" value="Métodos:&lt;div&gt;+ addUserChannel();&lt;/div&gt;&lt;div&gt;+ removeUserChannel();&lt;/div&gt;&lt;div&gt;+ addOpChannel();&lt;/div&gt;&lt;div&gt;+ removeOpChannel();&lt;/div&gt;&lt;div&gt;+ kickUserChannel();&lt;/div&gt;&lt;div&gt;+ inviteUserChannel();&lt;/div&gt;&lt;div&gt;&lt;br&gt;&lt;/div&gt;" style="rounded=0;whiteSpace=wrap;html=1;align=left;sketch=1;curveFitting=1;jiggle=2;fillColor=none;strokeColor=#9673a6;" vertex="1" parent="1">
          <mxGeometry x="640" y="320" width="160" height="200" as="geometry" />
        </mxCell>
        <mxCell id="chC2J1T07oMIhuz7B7of-12" value="Debe:&lt;div style=&quot;&quot;&gt;- Autenticarse =&amp;nbsp;&lt;/div&gt;&lt;div style=&quot;&quot;&gt;NICK:Establece o cambia el apodo&lt;/div&gt;&lt;div&gt;USER: Porporciona info sobre el user&lt;/div&gt;&lt;div&gt;-Unirse a un canal = JOIN&lt;/div&gt;&lt;div&gt;- Env y rec mensajes privados =&amp;nbsp; PRIVMSG&lt;/div&gt;&lt;div&gt;&lt;br&gt;&lt;/div&gt;&lt;div&gt;Si es op:&lt;/div&gt;&lt;div&gt;KICK = expulsa&lt;/div&gt;&lt;div&gt;INVITE = invita a un cliente al un canal&lt;/div&gt;&lt;div&gt;TOPIC = cambia o visualiza el tema&lt;/div&gt;&lt;div&gt;MODE = cambia el modo del canal:&lt;/div&gt;&lt;div&gt;&lt;span style=&quot;white-space: pre;&quot;&gt;&#x9;&lt;/span&gt;- i -&amp;gt; establece o elimina el modo solo invitados&lt;/div&gt;&lt;div&gt;&lt;span style=&quot;white-space: pre;&quot;&gt;&#x9;&lt;/span&gt;- t-&amp;gt; establece o elimina las restricc de TOPIC&lt;/div&gt;&lt;div&gt;&lt;span style=&quot;white-space: pre;&quot;&gt;&#x9;&lt;/span&gt;&lt;span style=&quot;white-space: pre;&quot;&gt;&#x9;&lt;/span&gt;(si es op puede cambiar el tema)&lt;/div&gt;&lt;div&gt;&lt;span style=&quot;white-space: pre;&quot;&gt;&#x9;&lt;/span&gt;- k-&amp;gt;&amp;nbsp;establece o elimina la clave del canal&lt;/div&gt;&lt;div&gt;&lt;span style=&quot;white-space: pre;&quot;&gt;&#x9;&lt;/span&gt;- o-&amp;gt; otorga/quita priv de op&lt;br&gt;&lt;/div&gt;&lt;div&gt;&lt;span style=&quot;white-space: pre;&quot;&gt;&#x9;&lt;/span&gt;- l -&amp;gt; establece/elimina el num de users del canal&lt;br&gt;&lt;/div&gt;" style="text;html=1;align=left;verticalAlign=middle;resizable=0;points=[];autosize=1;strokeColor=none;fillColor=none;sketch=1;curveFitting=1;jiggle=2;" vertex="1" parent="1">
          <mxGeometry x="30" y="500" width="310" height="270" as="geometry" />
        </mxCell>
        <mxCell id="chC2J1T07oMIhuz7B7of-19" value="" style="edgeStyle=orthogonalEdgeStyle;rounded=0;orthogonalLoop=1;jettySize=auto;html=1;" edge="1" parent="1" source="chC2J1T07oMIhuz7B7of-16" target="chC2J1T07oMIhuz7B7of-18">
          <mxGeometry relative="1" as="geometry" />
        </mxCell>
        <mxCell id="chC2J1T07oMIhuz7B7of-16" value="&lt;h3&gt;&lt;font face=&quot;Comic Sans MS&quot;&gt;SERVER&lt;/font&gt;&lt;/h3&gt;" style="rounded=0;whiteSpace=wrap;html=1;sketch=1;curveFitting=1;jiggle=2;" vertex="1" parent="1">
          <mxGeometry x="530" y="640" width="130" height="40" as="geometry" />
        </mxCell>
        <mxCell id="chC2J1T07oMIhuz7B7of-22" value="" style="edgeStyle=orthogonalEdgeStyle;rounded=0;orthogonalLoop=1;jettySize=auto;html=1;" edge="1" parent="1" source="chC2J1T07oMIhuz7B7of-18">
          <mxGeometry relative="1" as="geometry">
            <mxPoint x="595" y="870" as="targetPoint" />
          </mxGeometry>
        </mxCell>
        <mxCell id="chC2J1T07oMIhuz7B7of-18" value="prepareSocket()" style="rounded=0;whiteSpace=wrap;html=1;sketch=1;curveFitting=1;jiggle=2;" vertex="1" parent="1">
          <mxGeometry x="535" y="790" width="120" height="20" as="geometry" />
        </mxCell>
        <mxCell id="chC2J1T07oMIhuz7B7of-20" value="Start()" style="text;html=1;align=center;verticalAlign=middle;resizable=0;points=[];autosize=1;strokeColor=none;fillColor=none;" vertex="1" parent="1">
          <mxGeometry x="590" y="718" width="60" height="30" as="geometry" />
        </mxCell>
        <mxCell id="chC2J1T07oMIhuz7B7of-26" value="" style="edgeStyle=orthogonalEdgeStyle;rounded=0;orthogonalLoop=1;jettySize=auto;html=1;" edge="1" parent="1" source="chC2J1T07oMIhuz7B7of-23" target="chC2J1T07oMIhuz7B7of-25">
          <mxGeometry relative="1" as="geometry" />
        </mxCell>
        <mxCell id="chC2J1T07oMIhuz7B7of-30" value="" style="edgeStyle=orthogonalEdgeStyle;rounded=0;orthogonalLoop=1;jettySize=auto;html=1;" edge="1" parent="1" source="chC2J1T07oMIhuz7B7of-23" target="chC2J1T07oMIhuz7B7of-29">
          <mxGeometry relative="1" as="geometry" />
        </mxCell>
        <mxCell id="chC2J1T07oMIhuz7B7of-23" value="while (is_Running)&lt;div&gt;check&amp;nbsp; event&lt;/div&gt;" style="rhombus;whiteSpace=wrap;html=1;rounded=0;sketch=1;curveFitting=1;jiggle=2;fillColor=none;strokeColor=#56517e;" vertex="1" parent="1">
          <mxGeometry x="532.5" y="870" width="125" height="80" as="geometry" />
        </mxCell>
        <mxCell id="chC2J1T07oMIhuz7B7of-25" value="if (event is in server)&lt;div&gt;It´s a new conection.&lt;/div&gt;" style="whiteSpace=wrap;html=1;rounded=0;sketch=1;curveFitting=1;jiggle=2;" vertex="1" parent="1">
          <mxGeometry x="740" y="880" width="120" height="60" as="geometry" />
        </mxCell>
        <mxCell id="chC2J1T07oMIhuz7B7of-34" value="" style="edgeStyle=orthogonalEdgeStyle;rounded=0;orthogonalLoop=1;jettySize=auto;html=1;" edge="1" parent="1" source="chC2J1T07oMIhuz7B7of-27" target="chC2J1T07oMIhuz7B7of-33">
          <mxGeometry relative="1" as="geometry" />
        </mxCell>
        <mxCell id="chC2J1T07oMIhuz7B7of-27" value="acceptUser();" style="whiteSpace=wrap;html=1;rounded=0;sketch=1;curveFitting=1;jiggle=2;" vertex="1" parent="1">
          <mxGeometry x="660" y="1120" width="120" height="30" as="geometry" />
        </mxCell>
        <mxCell id="chC2J1T07oMIhuz7B7of-32" value="" style="edgeStyle=orthogonalEdgeStyle;rounded=0;orthogonalLoop=1;jettySize=auto;html=1;" edge="1" parent="1" source="chC2J1T07oMIhuz7B7of-29" target="chC2J1T07oMIhuz7B7of-31">
          <mxGeometry relative="1" as="geometry" />
        </mxCell>
        <mxCell id="chC2J1T07oMIhuz7B7of-29" value="if (event is out server)&lt;div&gt;It´s a new message&lt;/div&gt;" style="whiteSpace=wrap;html=1;rounded=0;sketch=1;curveFitting=1;jiggle=2;" vertex="1" parent="1">
          <mxGeometry x="330" y="880" width="120" height="60" as="geometry" />
        </mxCell>
        <mxCell id="chC2J1T07oMIhuz7B7of-36" value="" style="edgeStyle=orthogonalEdgeStyle;rounded=0;orthogonalLoop=1;jettySize=auto;html=1;" edge="1" parent="1" source="chC2J1T07oMIhuz7B7of-31">
          <mxGeometry relative="1" as="geometry">
            <mxPoint x="390" y="1040" as="targetPoint" />
          </mxGeometry>
        </mxCell>
        <mxCell id="chC2J1T07oMIhuz7B7of-31" value="readUser();" style="whiteSpace=wrap;html=1;rounded=0;sketch=1;curveFitting=1;jiggle=2;" vertex="1" parent="1">
          <mxGeometry x="330" y="975" width="120" height="30" as="geometry" />
        </mxCell>
        <mxCell id="chC2J1T07oMIhuz7B7of-59" style="edgeStyle=orthogonalEdgeStyle;rounded=0;orthogonalLoop=1;jettySize=auto;html=1;exitX=1;exitY=0.5;exitDx=0;exitDy=0;" edge="1" parent="1" source="chC2J1T07oMIhuz7B7of-33">
          <mxGeometry relative="1" as="geometry">
            <mxPoint x="1010" y="1140" as="targetPoint" />
          </mxGeometry>
        </mxCell>
        <mxCell id="chC2J1T07oMIhuz7B7of-33" value="addUser();&lt;div&gt;Añade el user al mapa de users del server&lt;/div&gt;" style="whiteSpace=wrap;html=1;rounded=0;sketch=1;curveFitting=1;jiggle=2;" vertex="1" parent="1">
          <mxGeometry x="660" y="1200" width="120" height="60" as="geometry" />
        </mxCell>
        <mxCell id="chC2J1T07oMIhuz7B7of-40" value="" style="edgeStyle=orthogonalEdgeStyle;rounded=0;orthogonalLoop=1;jettySize=auto;html=1;" edge="1" parent="1" source="chC2J1T07oMIhuz7B7of-37" target="chC2J1T07oMIhuz7B7of-39">
          <mxGeometry relative="1" as="geometry" />
        </mxCell>
        <mxCell id="chC2J1T07oMIhuz7B7of-37" value="If(its normal message)" style="whiteSpace=wrap;html=1;rounded=0;sketch=1;curveFitting=1;jiggle=2;" vertex="1" parent="1">
          <mxGeometry x="490" y="1047.5" width="120" height="35" as="geometry" />
        </mxCell>
        <mxCell id="chC2J1T07oMIhuz7B7of-39" value="send to all users" style="whiteSpace=wrap;html=1;rounded=0;sketch=1;curveFitting=1;jiggle=2;" vertex="1" parent="1">
          <mxGeometry x="490" y="1110" width="120" height="30" as="geometry" />
        </mxCell>
        <mxCell id="chC2J1T07oMIhuz7B7of-42" value="" style="edgeStyle=orthogonalEdgeStyle;rounded=0;orthogonalLoop=1;jettySize=auto;html=1;" edge="1" parent="1" source="chC2J1T07oMIhuz7B7of-41" target="chC2J1T07oMIhuz7B7of-37">
          <mxGeometry relative="1" as="geometry" />
        </mxCell>
        <mxCell id="chC2J1T07oMIhuz7B7of-44" value="" style="edgeStyle=orthogonalEdgeStyle;rounded=0;orthogonalLoop=1;jettySize=auto;html=1;" edge="1" parent="1" source="chC2J1T07oMIhuz7B7of-41" target="chC2J1T07oMIhuz7B7of-43">
          <mxGeometry relative="1" as="geometry" />
        </mxCell>
        <mxCell id="chC2J1T07oMIhuz7B7of-41" value="parseMessage()" style="rhombus;whiteSpace=wrap;html=1;fillColor=none;strokeColor=#56517e;sketch=1;curveFitting=1;jiggle=2;" vertex="1" parent="1">
          <mxGeometry x="330" y="1040" width="120" height="50" as="geometry" />
        </mxCell>
        <mxCell id="chC2J1T07oMIhuz7B7of-62" style="edgeStyle=orthogonalEdgeStyle;rounded=0;orthogonalLoop=1;jettySize=auto;html=1;" edge="1" parent="1" source="chC2J1T07oMIhuz7B7of-43">
          <mxGeometry relative="1" as="geometry">
            <mxPoint x="70" y="2010" as="targetPoint" />
            <Array as="points">
              <mxPoint x="80" y="2010" />
            </Array>
          </mxGeometry>
        </mxCell>
        <mxCell id="chC2J1T07oMIhuz7B7of-43" value="" style="whiteSpace=wrap;html=1;shadow=0;sketch=1;curveFitting=1;jiggle=2;fillColor=none;strokeColor=#b46504;" vertex="1" parent="1">
          <mxGeometry x="80" y="1048.8500000000001" width="155" height="32.29" as="geometry" />
        </mxCell>
        <mxCell id="chC2J1T07oMIhuz7B7of-48" value="" style="edgeStyle=orthogonalEdgeStyle;rounded=0;orthogonalLoop=1;jettySize=auto;html=1;" edge="1" parent="1" source="chC2J1T07oMIhuz7B7of-25" target="chC2J1T07oMIhuz7B7of-47">
          <mxGeometry relative="1" as="geometry">
            <mxPoint x="800" y="940" as="sourcePoint" />
            <mxPoint x="800" y="1010" as="targetPoint" />
          </mxGeometry>
        </mxCell>
        <mxCell id="chC2J1T07oMIhuz7B7of-57" value="" style="edgeStyle=orthogonalEdgeStyle;rounded=0;orthogonalLoop=1;jettySize=auto;html=1;" edge="1" parent="1" source="chC2J1T07oMIhuz7B7of-47" target="chC2J1T07oMIhuz7B7of-52">
          <mxGeometry relative="1" as="geometry" />
        </mxCell>
        <mxCell id="chC2J1T07oMIhuz7B7of-47" value="autenticación con el server" style="whiteSpace=wrap;html=1;rounded=0;sketch=1;curveFitting=1;jiggle=2;" vertex="1" parent="1">
          <mxGeometry x="740" y="980" width="120" height="30" as="geometry" />
        </mxCell>
        <mxCell id="chC2J1T07oMIhuz7B7of-53" style="edgeStyle=orthogonalEdgeStyle;rounded=0;orthogonalLoop=1;jettySize=auto;html=1;" edge="1" parent="1" source="chC2J1T07oMIhuz7B7of-52">
          <mxGeometry relative="1" as="geometry">
            <mxPoint x="720" y="1120" as="targetPoint" />
          </mxGeometry>
        </mxCell>
        <mxCell id="chC2J1T07oMIhuz7B7of-55" value="" style="edgeStyle=orthogonalEdgeStyle;rounded=0;orthogonalLoop=1;jettySize=auto;html=1;" edge="1" parent="1" source="chC2J1T07oMIhuz7B7of-52" target="chC2J1T07oMIhuz7B7of-54">
          <mxGeometry relative="1" as="geometry" />
        </mxCell>
        <mxCell id="chC2J1T07oMIhuz7B7of-52" value="if (password OK)" style="rhombus;whiteSpace=wrap;html=1;fillColor=none;strokeColor=#56517e;sketch=1;curveFitting=1;jiggle=2;" vertex="1" parent="1">
          <mxGeometry x="740" y="1040" width="120" height="50" as="geometry" />
        </mxCell>
        <mxCell id="chC2J1T07oMIhuz7B7of-58" style="edgeStyle=orthogonalEdgeStyle;rounded=0;orthogonalLoop=1;jettySize=auto;html=1;entryX=1;entryY=0;entryDx=0;entryDy=0;" edge="1" parent="1" source="chC2J1T07oMIhuz7B7of-54" target="chC2J1T07oMIhuz7B7of-23">
          <mxGeometry relative="1" as="geometry">
            <mxPoint x="640" y="840" as="targetPoint" />
            <Array as="points">
              <mxPoint x="1011" y="1136" />
              <mxPoint x="1011" y="840" />
              <mxPoint x="626" y="840" />
            </Array>
          </mxGeometry>
        </mxCell>
        <mxCell id="chC2J1T07oMIhuz7B7of-54" value="expulseUser()" style="whiteSpace=wrap;html=1;sketch=1;curveFitting=1;jiggle=2;" vertex="1" parent="1">
          <mxGeometry x="870" y="1120" width="120" height="32.5" as="geometry" />
        </mxCell>
        <mxCell id="chC2J1T07oMIhuz7B7of-60" value="command" style="text;html=1;align=center;verticalAlign=middle;resizable=0;points=[];autosize=1;strokeColor=none;fillColor=none;" vertex="1" parent="1">
          <mxGeometry x="110" y="1051.1399999999999" width="80" height="30" as="geometry" />
        </mxCell>
        <mxCell id="chC2J1T07oMIhuz7B7of-64" value="" style="edgeStyle=orthogonalEdgeStyle;rounded=0;orthogonalLoop=1;jettySize=auto;html=1;" edge="1" parent="1" source="chC2J1T07oMIhuz7B7of-61" target="chC2J1T07oMIhuz7B7of-63">
          <mxGeometry relative="1" as="geometry" />
        </mxCell>
        <mxCell id="chC2J1T07oMIhuz7B7of-61" value="NICK" style="whiteSpace=wrap;html=1;rounded=0;sketch=1;curveFitting=1;jiggle=2;fillColor=none;strokeColor=#b46504;" vertex="1" parent="1">
          <mxGeometry x="80" y="1169" width="120" height="30" as="geometry" />
        </mxCell>
        <mxCell id="chC2J1T07oMIhuz7B7of-63" value="setNick()" style="whiteSpace=wrap;html=1;rounded=0;sketch=1;curveFitting=1;jiggle=2;" vertex="1" parent="1">
          <mxGeometry x="280" y="1169" width="120" height="30" as="geometry" />
        </mxCell>
        <mxCell id="chC2J1T07oMIhuz7B7of-66" value="USER" style="whiteSpace=wrap;html=1;rounded=0;sketch=1;curveFitting=1;jiggle=2;fillColor=none;strokeColor=#b46504;" vertex="1" parent="1">
          <mxGeometry x="80" y="1240" width="120" height="30" as="geometry" />
        </mxCell>
        <mxCell id="chC2J1T07oMIhuz7B7of-67" value="" style="edgeStyle=orthogonalEdgeStyle;rounded=0;orthogonalLoop=1;jettySize=auto;html=1;" edge="1" parent="1" target="chC2J1T07oMIhuz7B7of-68">
          <mxGeometry relative="1" as="geometry">
            <mxPoint x="200" y="1255" as="sourcePoint" />
          </mxGeometry>
        </mxCell>
        <mxCell id="chC2J1T07oMIhuz7B7of-68" value="printUser() en user" style="whiteSpace=wrap;html=1;rounded=0;sketch=1;curveFitting=1;jiggle=2;" vertex="1" parent="1">
          <mxGeometry x="280" y="1240" width="120" height="30" as="geometry" />
        </mxCell>
        <mxCell id="chC2J1T07oMIhuz7B7of-69" value="JOIN" style="whiteSpace=wrap;html=1;rounded=0;sketch=1;curveFitting=1;jiggle=2;fillColor=none;strokeColor=#b46504;" vertex="1" parent="1">
          <mxGeometry x="80" y="1320" width="120" height="30" as="geometry" />
        </mxCell>
        <mxCell id="chC2J1T07oMIhuz7B7of-70" value="" style="edgeStyle=orthogonalEdgeStyle;rounded=0;orthogonalLoop=1;jettySize=auto;html=1;" edge="1" parent="1" target="chC2J1T07oMIhuz7B7of-71">
          <mxGeometry relative="1" as="geometry">
            <mxPoint x="200" y="1335" as="sourcePoint" />
          </mxGeometry>
        </mxCell>
        <mxCell id="chC2J1T07oMIhuz7B7of-79" value="" style="edgeStyle=orthogonalEdgeStyle;rounded=0;orthogonalLoop=1;jettySize=auto;html=1;" edge="1" parent="1" source="chC2J1T07oMIhuz7B7of-71" target="chC2J1T07oMIhuz7B7of-78">
          <mxGeometry relative="1" as="geometry" />
        </mxCell>
        <mxCell id="chC2J1T07oMIhuz7B7of-71" value="newChannel()&lt;div&gt;add *user to the vector&lt;/div&gt;" style="whiteSpace=wrap;html=1;rounded=0;sketch=1;curveFitting=1;jiggle=2;" vertex="1" parent="1">
          <mxGeometry x="280" y="1310" width="120" height="50" as="geometry" />
        </mxCell>
        <mxCell id="chC2J1T07oMIhuz7B7of-72" value="PRIVMSG" style="whiteSpace=wrap;html=1;rounded=0;sketch=1;curveFitting=1;jiggle=2;fillColor=none;strokeColor=#b46504;" vertex="1" parent="1">
          <mxGeometry x="80" y="1400" width="120" height="30" as="geometry" />
        </mxCell>
        <mxCell id="chC2J1T07oMIhuz7B7of-73" value="" style="edgeStyle=orthogonalEdgeStyle;rounded=0;orthogonalLoop=1;jettySize=auto;html=1;" edge="1" parent="1" target="chC2J1T07oMIhuz7B7of-74">
          <mxGeometry relative="1" as="geometry">
            <mxPoint x="200" y="1415" as="sourcePoint" />
          </mxGeometry>
        </mxCell>
        <mxCell id="chC2J1T07oMIhuz7B7of-87" value="" style="edgeStyle=orthogonalEdgeStyle;rounded=0;orthogonalLoop=1;jettySize=auto;html=1;" edge="1" parent="1" source="chC2J1T07oMIhuz7B7of-74" target="chC2J1T07oMIhuz7B7of-84">
          <mxGeometry relative="1" as="geometry" />
        </mxCell>
        <mxCell id="chC2J1T07oMIhuz7B7of-74" value="send(buffer) al user receptor&lt;div&gt;necesita localizar el user en el mapa pero en server o en channel? ENTIENDO QUE EN CHANNEL&amp;nbsp;&lt;/div&gt;" style="whiteSpace=wrap;html=1;rounded=0;sketch=1;curveFitting=1;jiggle=2;" vertex="1" parent="1">
          <mxGeometry x="280" y="1380" width="160" height="70" as="geometry" />
        </mxCell>
        <mxCell id="chC2J1T07oMIhuz7B7of-75" value="KICK" style="whiteSpace=wrap;html=1;rounded=0;sketch=1;curveFitting=1;jiggle=2;fillColor=none;strokeColor=#b46504;" vertex="1" parent="1">
          <mxGeometry x="80" y="1480" width="120" height="30" as="geometry" />
        </mxCell>
        <mxCell id="chC2J1T07oMIhuz7B7of-76" value="" style="edgeStyle=orthogonalEdgeStyle;rounded=0;orthogonalLoop=1;jettySize=auto;html=1;" edge="1" parent="1">
          <mxGeometry relative="1" as="geometry">
            <mxPoint x="200" y="1495" as="sourcePoint" />
            <mxPoint x="280" y="1495" as="targetPoint" />
          </mxGeometry>
        </mxCell>
        <mxCell id="chC2J1T07oMIhuz7B7of-163" style="edgeStyle=orthogonalEdgeStyle;rounded=0;orthogonalLoop=1;jettySize=auto;html=1;exitX=1;exitY=0.5;exitDx=0;exitDy=0;" edge="1" parent="1" source="chC2J1T07oMIhuz7B7of-78" target="chC2J1T07oMIhuz7B7of-162">
          <mxGeometry relative="1" as="geometry" />
        </mxCell>
        <mxCell id="chC2J1T07oMIhuz7B7of-78" value="Cuando un user manda un mensaje, hay que mandar el mensaje a todo el channel&lt;div&gt;sendBroadcast()&lt;/div&gt;" style="whiteSpace=wrap;html=1;rounded=0;sketch=1;curveFitting=1;jiggle=2;" vertex="1" parent="1">
          <mxGeometry x="470" y="1292.5" width="120" height="85" as="geometry" />
        </mxCell>
        <mxCell id="chC2J1T07oMIhuz7B7of-84" value="findUser()&lt;div&gt;sendMessage()&lt;/div&gt;" style="whiteSpace=wrap;html=1;rounded=0;sketch=1;curveFitting=1;jiggle=2;" vertex="1" parent="1">
          <mxGeometry x="490" y="1400" width="120" height="30" as="geometry" />
        </mxCell>
        <mxCell id="chC2J1T07oMIhuz7B7of-94" style="edgeStyle=orthogonalEdgeStyle;rounded=0;orthogonalLoop=1;jettySize=auto;html=1;exitX=1;exitY=0;exitDx=0;exitDy=0;entryX=0;entryY=0.5;entryDx=0;entryDy=0;" edge="1" parent="1" source="chC2J1T07oMIhuz7B7of-88" target="chC2J1T07oMIhuz7B7of-91">
          <mxGeometry relative="1" as="geometry" />
        </mxCell>
        <mxCell id="chC2J1T07oMIhuz7B7of-95" style="edgeStyle=orthogonalEdgeStyle;rounded=0;orthogonalLoop=1;jettySize=auto;html=1;exitX=1;exitY=1;exitDx=0;exitDy=0;entryX=0;entryY=0.25;entryDx=0;entryDy=0;" edge="1" parent="1" source="chC2J1T07oMIhuz7B7of-88" target="chC2J1T07oMIhuz7B7of-93">
          <mxGeometry relative="1" as="geometry" />
        </mxCell>
        <mxCell id="chC2J1T07oMIhuz7B7of-88" value="If (userOp)" style="rhombus;whiteSpace=wrap;html=1;fillColor=none;strokeColor=#56517e;sketch=1;curveFitting=1;jiggle=2;" vertex="1" parent="1">
          <mxGeometry x="280" y="1472.5" width="120" height="45" as="geometry" />
        </mxCell>
        <mxCell id="chC2J1T07oMIhuz7B7of-91" value="findUser()&lt;div&gt;removeUser()&lt;/div&gt;" style="whiteSpace=wrap;html=1;rounded=0;sketch=1;curveFitting=1;jiggle=2;" vertex="1" parent="1">
          <mxGeometry x="480" y="1470" width="120" height="30" as="geometry" />
        </mxCell>
        <mxCell id="chC2J1T07oMIhuz7B7of-93" value="printError()" style="whiteSpace=wrap;html=1;rounded=0;sketch=1;curveFitting=1;jiggle=2;" vertex="1" parent="1">
          <mxGeometry x="480" y="1517.5" width="120" height="30" as="geometry" />
        </mxCell>
        <mxCell id="chC2J1T07oMIhuz7B7of-102" style="edgeStyle=orthogonalEdgeStyle;rounded=0;orthogonalLoop=1;jettySize=auto;html=1;entryX=0;entryY=0.5;entryDx=0;entryDy=0;" edge="1" parent="1" source="chC2J1T07oMIhuz7B7of-96" target="chC2J1T07oMIhuz7B7of-99">
          <mxGeometry relative="1" as="geometry" />
        </mxCell>
        <mxCell id="chC2J1T07oMIhuz7B7of-96" value="INVITE" style="whiteSpace=wrap;html=1;rounded=0;sketch=1;curveFitting=1;jiggle=2;fillColor=none;strokeColor=#b46504;" vertex="1" parent="1">
          <mxGeometry x="80" y="1570" width="120" height="30" as="geometry" />
        </mxCell>
        <mxCell id="chC2J1T07oMIhuz7B7of-97" style="edgeStyle=orthogonalEdgeStyle;rounded=0;orthogonalLoop=1;jettySize=auto;html=1;exitX=1;exitY=0;exitDx=0;exitDy=0;entryX=0;entryY=0.5;entryDx=0;entryDy=0;" edge="1" parent="1" source="chC2J1T07oMIhuz7B7of-99" target="chC2J1T07oMIhuz7B7of-100">
          <mxGeometry relative="1" as="geometry" />
        </mxCell>
        <mxCell id="chC2J1T07oMIhuz7B7of-98" style="edgeStyle=orthogonalEdgeStyle;rounded=0;orthogonalLoop=1;jettySize=auto;html=1;exitX=1;exitY=1;exitDx=0;exitDy=0;entryX=0;entryY=0.25;entryDx=0;entryDy=0;" edge="1" parent="1" source="chC2J1T07oMIhuz7B7of-99" target="chC2J1T07oMIhuz7B7of-101">
          <mxGeometry relative="1" as="geometry" />
        </mxCell>
        <mxCell id="chC2J1T07oMIhuz7B7of-99" value="If (userOp)" style="rhombus;whiteSpace=wrap;html=1;fillColor=none;strokeColor=#56517e;sketch=1;curveFitting=1;jiggle=2;" vertex="1" parent="1">
          <mxGeometry x="280" y="1562.5" width="120" height="45" as="geometry" />
        </mxCell>
        <mxCell id="chC2J1T07oMIhuz7B7of-100" value="addUserToChanel()" style="whiteSpace=wrap;html=1;rounded=0;sketch=1;curveFitting=1;jiggle=2;" vertex="1" parent="1">
          <mxGeometry x="480" y="1560" width="120" height="30" as="geometry" />
        </mxCell>
        <mxCell id="chC2J1T07oMIhuz7B7of-101" value="printError()" style="whiteSpace=wrap;html=1;rounded=0;sketch=1;curveFitting=1;jiggle=2;" vertex="1" parent="1">
          <mxGeometry x="480" y="1607.5" width="120" height="30" as="geometry" />
        </mxCell>
        <mxCell id="chC2J1T07oMIhuz7B7of-109" style="edgeStyle=orthogonalEdgeStyle;rounded=0;orthogonalLoop=1;jettySize=auto;html=1;exitX=1;exitY=0;exitDx=0;exitDy=0;entryX=0;entryY=0.5;entryDx=0;entryDy=0;" edge="1" parent="1" source="chC2J1T07oMIhuz7B7of-111">
          <mxGeometry relative="1" as="geometry">
            <mxPoint x="480" y="1675" as="targetPoint" />
          </mxGeometry>
        </mxCell>
        <mxCell id="chC2J1T07oMIhuz7B7of-110" style="edgeStyle=orthogonalEdgeStyle;rounded=0;orthogonalLoop=1;jettySize=auto;html=1;exitX=1;exitY=1;exitDx=0;exitDy=0;entryX=0;entryY=0.25;entryDx=0;entryDy=0;" edge="1" parent="1" source="chC2J1T07oMIhuz7B7of-111" target="chC2J1T07oMIhuz7B7of-113">
          <mxGeometry relative="1" as="geometry" />
        </mxCell>
        <mxCell id="chC2J1T07oMIhuz7B7of-111" value="if(TOPIC + name)" style="rhombus;whiteSpace=wrap;html=1;fillColor=none;strokeColor=#56517e;sketch=1;curveFitting=1;jiggle=2;" vertex="1" parent="1">
          <mxGeometry x="280" y="1670" width="120" height="45" as="geometry" />
        </mxCell>
        <mxCell id="chC2J1T07oMIhuz7B7of-113" value="getTopic()&lt;div&gt;&amp;nbsp;only in that user&lt;/div&gt;" style="whiteSpace=wrap;html=1;rounded=0;sketch=1;curveFitting=1;jiggle=2;" vertex="1" parent="1">
          <mxGeometry x="480" y="1707.5" width="120" height="42.5" as="geometry" />
        </mxCell>
        <mxCell id="chC2J1T07oMIhuz7B7of-126" style="edgeStyle=orthogonalEdgeStyle;rounded=0;orthogonalLoop=1;jettySize=auto;html=1;entryX=0;entryY=0.5;entryDx=0;entryDy=0;" edge="1" parent="1" source="chC2J1T07oMIhuz7B7of-119" target="chC2J1T07oMIhuz7B7of-111">
          <mxGeometry relative="1" as="geometry" />
        </mxCell>
        <mxCell id="chC2J1T07oMIhuz7B7of-119" value="TOPIC" style="whiteSpace=wrap;html=1;rounded=0;sketch=1;curveFitting=1;jiggle=2;fillColor=none;strokeColor=#b46504;" vertex="1" parent="1">
          <mxGeometry x="80" y="1677.5" width="120" height="30" as="geometry" />
        </mxCell>
        <mxCell id="chC2J1T07oMIhuz7B7of-124" style="edgeStyle=orthogonalEdgeStyle;rounded=0;orthogonalLoop=1;jettySize=auto;html=1;exitX=1;exitY=0;exitDx=0;exitDy=0;entryX=0;entryY=0.75;entryDx=0;entryDy=0;" edge="1" parent="1" source="chC2J1T07oMIhuz7B7of-120" target="chC2J1T07oMIhuz7B7of-121">
          <mxGeometry relative="1" as="geometry" />
        </mxCell>
        <mxCell id="chC2J1T07oMIhuz7B7of-125" style="edgeStyle=orthogonalEdgeStyle;rounded=0;orthogonalLoop=1;jettySize=auto;html=1;exitX=1;exitY=1;exitDx=0;exitDy=0;entryX=0;entryY=0.25;entryDx=0;entryDy=0;" edge="1" parent="1" source="chC2J1T07oMIhuz7B7of-120" target="chC2J1T07oMIhuz7B7of-123">
          <mxGeometry relative="1" as="geometry" />
        </mxCell>
        <mxCell id="chC2J1T07oMIhuz7B7of-120" value="if (userOP)" style="rhombus;whiteSpace=wrap;html=1;" vertex="1" parent="1">
          <mxGeometry x="480" y="1650" width="120" height="45" as="geometry" />
        </mxCell>
        <mxCell id="chC2J1T07oMIhuz7B7of-121" value="setTopic()" style="whiteSpace=wrap;html=1;sketch=1;curveFitting=1;jiggle=2;" vertex="1" parent="1">
          <mxGeometry x="640" y="1637.5" width="120" height="31.25" as="geometry" />
        </mxCell>
        <mxCell id="chC2J1T07oMIhuz7B7of-123" value="printError()" style="whiteSpace=wrap;html=1;rounded=0;sketch=1;curveFitting=1;jiggle=2;" vertex="1" parent="1">
          <mxGeometry x="640" y="1685" width="120" height="30" as="geometry" />
        </mxCell>
        <mxCell id="chC2J1T07oMIhuz7B7of-127" style="edgeStyle=orthogonalEdgeStyle;rounded=0;orthogonalLoop=1;jettySize=auto;html=1;entryX=0;entryY=0.5;entryDx=0;entryDy=0;" edge="1" parent="1" source="chC2J1T07oMIhuz7B7of-128" target="chC2J1T07oMIhuz7B7of-131">
          <mxGeometry relative="1" as="geometry" />
        </mxCell>
        <mxCell id="chC2J1T07oMIhuz7B7of-128" value="MODE" style="whiteSpace=wrap;html=1;rounded=0;sketch=1;curveFitting=1;jiggle=2;fillColor=none;strokeColor=#b46504;" vertex="1" parent="1">
          <mxGeometry x="80" y="1810" width="120" height="30" as="geometry" />
        </mxCell>
        <mxCell id="chC2J1T07oMIhuz7B7of-129" style="edgeStyle=orthogonalEdgeStyle;rounded=0;orthogonalLoop=1;jettySize=auto;html=1;exitX=1;exitY=0;exitDx=0;exitDy=0;entryX=0;entryY=0.5;entryDx=0;entryDy=0;" edge="1" parent="1" source="chC2J1T07oMIhuz7B7of-131" target="chC2J1T07oMIhuz7B7of-132">
          <mxGeometry relative="1" as="geometry" />
        </mxCell>
        <mxCell id="chC2J1T07oMIhuz7B7of-130" style="edgeStyle=orthogonalEdgeStyle;rounded=0;orthogonalLoop=1;jettySize=auto;html=1;exitX=1;exitY=1;exitDx=0;exitDy=0;entryX=0;entryY=0.25;entryDx=0;entryDy=0;" edge="1" parent="1" source="chC2J1T07oMIhuz7B7of-131" target="chC2J1T07oMIhuz7B7of-133">
          <mxGeometry relative="1" as="geometry" />
        </mxCell>
        <mxCell id="chC2J1T07oMIhuz7B7of-131" value="If (userOp)" style="rhombus;whiteSpace=wrap;html=1;fillColor=none;strokeColor=#56517e;sketch=1;curveFitting=1;jiggle=2;" vertex="1" parent="1">
          <mxGeometry x="280" y="1802.5" width="120" height="45" as="geometry" />
        </mxCell>
        <mxCell id="chC2J1T07oMIhuz7B7of-149" style="edgeStyle=orthogonalEdgeStyle;rounded=0;orthogonalLoop=1;jettySize=auto;html=1;exitX=1;exitY=0.5;exitDx=0;exitDy=0;entryX=0;entryY=0.5;entryDx=0;entryDy=0;" edge="1" parent="1" source="chC2J1T07oMIhuz7B7of-132" target="chC2J1T07oMIhuz7B7of-148">
          <mxGeometry relative="1" as="geometry" />
        </mxCell>
        <mxCell id="chC2J1T07oMIhuz7B7of-132" value="setModeChannel()" style="whiteSpace=wrap;html=1;rounded=0;sketch=1;curveFitting=1;jiggle=2;" vertex="1" parent="1">
          <mxGeometry x="480" y="1800" width="120" height="30" as="geometry" />
        </mxCell>
        <mxCell id="chC2J1T07oMIhuz7B7of-133" value="printError()" style="whiteSpace=wrap;html=1;rounded=0;sketch=1;curveFitting=1;jiggle=2;" vertex="1" parent="1">
          <mxGeometry x="480" y="1847.5" width="120" height="30" as="geometry" />
        </mxCell>
        <mxCell id="chC2J1T07oMIhuz7B7of-148" value="switch/case" style="rhombus;whiteSpace=wrap;html=1;fillColor=none;fontColor=#FFFFFF;strokeColor=#B09500;" vertex="1" parent="1">
          <mxGeometry x="640" y="1792.5" width="120" height="45" as="geometry" />
        </mxCell>
        <mxCell id="chC2J1T07oMIhuz7B7of-167" style="edgeStyle=orthogonalEdgeStyle;rounded=0;orthogonalLoop=1;jettySize=auto;html=1;exitX=0;exitY=0.5;exitDx=0;exitDy=0;entryX=0;entryY=0.5;entryDx=0;entryDy=0;fillColor=#e3c800;strokeColor=#B09500;" edge="1" parent="1" source="chC2J1T07oMIhuz7B7of-157" target="chC2J1T07oMIhuz7B7of-158">
          <mxGeometry relative="1" as="geometry" />
        </mxCell>
        <mxCell id="chC2J1T07oMIhuz7B7of-157" value="i: establece canal para invitados" style="shape=hexagon;perimeter=hexagonPerimeter2;whiteSpace=wrap;html=1;fixedSize=1;sketch=1;curveFitting=1;jiggle=2;fillColor=none;strokeColor=#B09500;fontColor=#FFFFFF;" vertex="1" parent="1">
          <mxGeometry x="640" y="1850" width="120" height="40" as="geometry" />
        </mxCell>
        <mxCell id="chC2J1T07oMIhuz7B7of-168" style="edgeStyle=orthogonalEdgeStyle;rounded=0;orthogonalLoop=1;jettySize=auto;html=1;exitX=0;exitY=0.5;exitDx=0;exitDy=0;entryX=0;entryY=0.5;entryDx=0;entryDy=0;fillColor=#e3c800;strokeColor=#B09500;" edge="1" parent="1" source="chC2J1T07oMIhuz7B7of-158" target="chC2J1T07oMIhuz7B7of-159">
          <mxGeometry relative="1" as="geometry" />
        </mxCell>
        <mxCell id="chC2J1T07oMIhuz7B7of-158" value="t: pone/quita restricciones TOPIC" style="shape=hexagon;perimeter=hexagonPerimeter2;whiteSpace=wrap;html=1;fixedSize=1;sketch=1;curveFitting=1;jiggle=2;fillColor=none;strokeColor=#B09500;fontColor=#FFFFFF;" vertex="1" parent="1">
          <mxGeometry x="640" y="1910" width="120" height="40" as="geometry" />
        </mxCell>
        <mxCell id="chC2J1T07oMIhuz7B7of-169" style="edgeStyle=orthogonalEdgeStyle;rounded=0;orthogonalLoop=1;jettySize=auto;html=1;exitX=0;exitY=0.5;exitDx=0;exitDy=0;entryX=0;entryY=0.5;entryDx=0;entryDy=0;fillColor=#e3c800;strokeColor=#B09500;" edge="1" parent="1" source="chC2J1T07oMIhuz7B7of-159" target="chC2J1T07oMIhuz7B7of-160">
          <mxGeometry relative="1" as="geometry" />
        </mxCell>
        <mxCell id="chC2J1T07oMIhuz7B7of-159" value="k: establece/elimina&lt;div&gt;clave del canal&lt;/div&gt;" style="shape=hexagon;perimeter=hexagonPerimeter2;whiteSpace=wrap;html=1;fixedSize=1;sketch=1;curveFitting=1;jiggle=2;fillColor=none;strokeColor=#B09500;fontColor=#FFFFFF;" vertex="1" parent="1">
          <mxGeometry x="640" y="1970" width="120" height="30" as="geometry" />
        </mxCell>
        <mxCell id="chC2J1T07oMIhuz7B7of-170" style="edgeStyle=orthogonalEdgeStyle;rounded=0;orthogonalLoop=1;jettySize=auto;html=1;exitX=0;exitY=0.5;exitDx=0;exitDy=0;entryX=0;entryY=0.5;entryDx=0;entryDy=0;fillColor=#e3c800;strokeColor=#B09500;" edge="1" parent="1" source="chC2J1T07oMIhuz7B7of-160" target="chC2J1T07oMIhuz7B7of-161">
          <mxGeometry relative="1" as="geometry" />
        </mxCell>
        <mxCell id="chC2J1T07oMIhuz7B7of-160" value="o: añade/elimina op" style="shape=hexagon;perimeter=hexagonPerimeter2;whiteSpace=wrap;html=1;fixedSize=1;sketch=1;curveFitting=1;jiggle=2;fillColor=none;strokeColor=#B09500;fontColor=#FFFFFF;" vertex="1" parent="1">
          <mxGeometry x="640" y="2030" width="120" height="30" as="geometry" />
        </mxCell>
        <mxCell id="chC2J1T07oMIhuz7B7of-161" value="l: establece/elimina num users del canal" style="shape=hexagon;perimeter=hexagonPerimeter2;whiteSpace=wrap;html=1;fixedSize=1;sketch=1;curveFitting=1;jiggle=2;fillColor=none;strokeColor=#B09500;fontColor=#FFFFFF;" vertex="1" parent="1">
          <mxGeometry x="640" y="2080" width="120" height="30" as="geometry" />
        </mxCell>
        <mxCell id="chC2J1T07oMIhuz7B7of-162" value="Habría que añadir al join comprobación de si es privado el canal o no&amp;nbsp;" style="text;html=1;align=center;verticalAlign=middle;resizable=0;points=[];autosize=1;strokeColor=none;fillColor=none;fontColor=#FF99CC;" vertex="1" parent="1">
          <mxGeometry x="630" y="1320" width="400" height="30" as="geometry" />
        </mxCell>
        <mxCell id="chC2J1T07oMIhuz7B7of-164" value="Entiendo que la clave es para canal privado&lt;div&gt;No se aún como gestionar el invitado y el privado&lt;/div&gt;" style="text;html=1;align=center;verticalAlign=middle;resizable=0;points=[];autosize=1;strokeColor=none;fillColor=none;fontColor=#FFCCE6;" vertex="1" parent="1">
          <mxGeometry x="760" y="1965" width="290" height="40" as="geometry" />
        </mxCell>
        <mxCell id="chC2J1T07oMIhuz7B7of-165" value="Pte de visualizar las retricciones de TOPIC,&amp;nbsp;&lt;div&gt;entiendo que es que sea op el que pueda cambiar el topic&amp;nbsp;&lt;/div&gt;&lt;div&gt;o lo cambie cualquiera&lt;/div&gt;" style="text;html=1;align=center;verticalAlign=middle;resizable=0;points=[];autosize=1;strokeColor=none;fillColor=none;fontColor=#FFCCE6;" vertex="1" parent="1">
          <mxGeometry x="760" y="1900" width="340" height="60" as="geometry" />
        </mxCell>
        <mxCell id="chC2J1T07oMIhuz7B7of-166" style="edgeStyle=orthogonalEdgeStyle;rounded=0;orthogonalLoop=1;jettySize=auto;html=1;exitX=0;exitY=1;exitDx=0;exitDy=0;entryX=0;entryY=0.5;entryDx=0;entryDy=0;fillColor=#e3c800;strokeColor=#B09500;" edge="1" parent="1" source="chC2J1T07oMIhuz7B7of-148" target="chC2J1T07oMIhuz7B7of-157">
          <mxGeometry relative="1" as="geometry">
            <Array as="points">
              <mxPoint x="620" y="1826" />
              <mxPoint x="620" y="1870" />
            </Array>
          </mxGeometry>
        </mxCell>
      </root>
    </mxGraphModel>
  </diagram>
</mxfile>
